<svg xmlns="http://www.w3.org/2000/svg" fill="none" viewBox="0 0 63 16"><g clip-path="url(#a)"><path fill="#0a66c2" d="M8.03 6.154h2.47v7.385H8.03zm1.235-3.816a1.36 1.36 0 0 0-1.233.857 1.35 1.35 0 0 0 .314 1.465 1.36 1.36 0 0 0 2.204-1.494 1.35 1.35 0 0 0-.755-.735 1.4 1.4 0 0 0-.53-.093m-6.794.124H0v11.077h6.794v-2.462H2.471zm33.29 7.507v.492h-5.558q.002.157.043.308a1.74 1.74 0 0 0 1.798 1.163 2.24 2.24 0 0 0 1.76-.738l1.68 1.034a4.32 4.32 0 0 1-3.502 1.495c-2.218 0-4.114-1.262-4.114-3.81a3.8 3.8 0 0 1 1.147-2.853 3.83 3.83 0 0 1 2.886-1.085c2.119 0 3.86 1.41 3.86 3.994m-2.315-.929a1.37 1.37 0 0 0-.453-1.06 1.38 1.38 0 0 0-1.104-.343 1.57 1.57 0 0 0-1.139.354c-.317.262-.519.64-.56 1.049zM42 2.462h2.47v11.077h-2.093v-.88a2.8 2.8 0 0 1-2.397 1.033c-1.55 0-3.428-1.144-3.428-3.846C36.552 7.434 38.214 6 39.95 6a2.64 2.64 0 0 1 2.05.837zm.185 7.384c0-1.157-.722-1.926-1.643-1.926a1.86 1.86 0 0 0-1.732 1.187 1.8 1.8 0 0 0-.12.727 1.84 1.84 0 0 0 .522 1.341 1.85 1.85 0 0 0 1.33.56 1.73 1.73 0 0 0 1.231-.59 1.72 1.72 0 0 0 .412-1.299M28.263 6.154h-2.94l-2.427 3.015h-.043V2.462h-2.47v11.077h2.47v-3.527h.043l2.47 3.527h3.046l-3.088-4.013zm-11.877-.185A2.75 2.75 0 0 0 14.052 7.2h-.031V6.154h-2.286v7.385h2.47V9.52a1.39 1.39 0 0 1 .793-1.451c.18-.084.375-.128.573-.13.68 0 1.106.363 1.106 1.55v4.05h2.47V8.96c0-2.246-1.414-2.99-2.76-2.99M63 1.231v13.538A1.24 1.24 0 0 1 61.765 16H48.176a1.23 1.23 0 0 1-1.235-1.23V1.23c0-.326.13-.639.362-.87s.546-.36.874-.36h13.588A1.23 1.23 0 0 1 63 1.23M51.882 6.154h-2.47v7.385h2.47zm.155-2.462a1.38 1.38 0 0 0-.836-1.3 1.39 1.39 0 0 0-1.525.28 1.383 1.383 0 0 0 .971 2.374 1.36 1.36 0 0 0 1.285-.827c.07-.167.106-.346.105-.527m8.492 5.268c0-2.246-1.414-3.015-2.76-3.015a2.76 2.76 0 0 0-2.335 1.261V6.154h-2.316v7.385h2.47V9.52a1.39 1.39 0 0 1 .793-1.451c.179-.084.374-.128.572-.13.68 0 1.106.363 1.106 1.55v4.05h2.47z"/></g><defs><clipPath id="a"><path fill="#fff" d="M0 0h63v16H0z"/></clipPath></defs></svg>