<svg xmlns="http://www.w3.org/2000/svg" fill="none" viewBox="0 0 24 24"><path fill="#fff" d="m13 11.6 3 3a.95.95 0 0 1 .275.7.95.95 0 0 1-.275.7.95.95 0 0 1-.7.275.95.95 0 0 1-.7-.275l-3.3-3.3a1 1 0 0 1-.225-.337 1 1 0 0 1-.075-.388V8q0-.424.287-.712A.97.97 0 0 1 12 7q.424 0 .713.288Q13 7.576 13 8zM15.25 5q-.525 0-.887-.362A1.2 1.2 0 0 1 14 3.75q0-.525.363-.887.362-.363.887-.363t.887.363.363.887q0 .525-.363.888A1.2 1.2 0 0 1 15.25 5m0 16.5q-.525 0-.887-.362A1.2 1.2 0 0 1 14 20.25q0-.525.363-.887.362-.363.887-.363t.887.363.363.887-.363.888a1.2 1.2 0 0 1-.887.362m4-13q-.525 0-.887-.362A1.2 1.2 0 0 1 18 7.25q0-.524.363-.887Q18.725 6 19.25 6t.887.363q.363.362.363.887t-.363.888a1.2 1.2 0 0 1-.887.362m0 9.5q-.525 0-.887-.362A1.2 1.2 0 0 1 18 16.75q0-.525.363-.887.362-.363.887-.363t.887.363q.363.363.363.887 0 .525-.363.888a1.2 1.2 0 0 1-.887.362m1.5-4.75q-.525 0-.887-.362A1.2 1.2 0 0 1 19.5 12q0-.525.363-.887.362-.363.887-.363t.887.363Q22 11.476 22 12q0 .525-.363.888a1.2 1.2 0 0 1-.887.362M2 12q0-3.924 2.613-6.75t6.412-3.2a.79.79 0 0 1 .688.238Q12 2.576 12 3q0 .4-.262.7a1.02 1.02 0 0 1-.663.35q-3.025.35-5.05 2.6T4 12q0 3.126 2.025 5.363t5.05 2.587q.4.05.663.35.262.3.262.7 0 .425-.287.713a.79.79 0 0 1-.688.237Q7.2 21.575 4.6 18.75T2 12"/></svg>